<svg clip-rule="evenodd" fill-rule="evenodd" stroke-linejoin="round" stroke-miterlimit="2" viewBox="0 0 64 64" xmlns="http://www.w3.org/2000/svg"><path d="m0-.001h64v64h-64z" fill="none"/><g transform="matrix(.290054 0 0 .290054 5.4123 4.88)"><circle cx="32" cy="158.95" fill="#ebeff2" r="19.06" transform="matrix(.591028 -.806651 .806651 .591028 -115.13 90.82)"/><path d="m32 179.5c-4.363-.006-8.611-1.408-12.12-4-5.27-3.875-8.388-10.039-8.388-16.58 0-11.29 9.29-20.58 20.58-20.58s20.58 9.29 20.58 20.58-9.29 20.58-20.58 20.58c-.024 0-.048 0-.072 0zm-10.35-6.39c3.011 2.208 6.65 3.399 10.384 3.399 9.633 0 17.56-7.927 17.56-17.56s-7.927-17.56-17.56-17.56c-5.591 0-10.859 2.671-14.164 7.181-5.681 7.772-3.977 18.838 3.78 24.54z" fill="#2b0f2b" fill-rule="nonzero"/><circle cx="32.77" cy="159.02" fill="#cfe1f0" r="8.54" transform="matrix(.591028 -.806651 .806651 .591028 -114.87 91.46)"/><path d="m32 169c-5.472-.02-9.964-4.528-9.964-10 0-5.486 4.514-10 10-10s10 4.514 10 10c0 2.121-.675 4.188-1.926 5.9-1.889 2.585-4.909 4.111-8.11 4.1zm0-17.08c-3.839.002-6.996 3.161-6.996 7 0 3.84 3.16 7 7 7s7-3.16 7-7c0-2.225-1.061-4.322-2.854-5.64-1.201-.888-2.656-1.368-4.15-1.37z" fill="#2b0f2b" fill-rule="nonzero"/><circle cx="32.86" cy="156.31" fill="#ebeff2" r="19.06" transform="matrix(.0584352 -.998291 .998291 .0584352 -125.11 179.97)"/><path d="m32.88 176.87h-1.23c-11.014-.33-19.895-9.481-19.895-20.501 0-11.251 9.259-20.51 20.51-20.51s20.51 9.259 20.51 20.51c0 11.02-8.881 20.171-19.895 20.501zm-.05-38.11c-9.452.269-17.08 8.117-17.08 17.573 0 9.644 7.936 17.58 17.58 17.58s17.58-7.936 17.58-17.58c0-9.456-7.628-17.304-17.08-17.573-.313-.007-.647-.01-1-.01z" fill="#2b0f2b" fill-rule="nonzero"/><circle cx="33.54" cy="155.95" fill="#cfe1f0" r="8.54" transform="matrix(.0584352 -.998291 .998291 .0584352 -124.1 180.31)"/><path d="m32.87 166.35h-.6c-5.37-.161-9.7-4.623-9.7-9.995 0-5.486 4.514-10 10-10s10 4.514 10 10c0 5.372-4.33 9.834-9.7 9.995zm0-17.09c-.067-.002-.133-.003-.2-.003-3.861 0-7.038 3.177-7.038 7.038 0 3.785 3.054 6.927 6.838 7.035.137.008.273.012.41.012 3.863 0 7.042-3.179 7.042-7.042 0-3.709-2.93-6.814-6.632-7.03z" fill="#2b0f2b" fill-rule="nonzero"/><path d="m77.12 35.41h28.79c6.885 0 12.55 5.665 12.55 12.55v.04 147.63.01c0 13.034-10.726 23.76-23.76 23.76-.003 0-.007 0-.01 0h-6.35c-13.034 0-23.76-10.726-23.76-23.76v-147.64c0-.013 0-.027 0-.04 0-6.881 5.659-12.545 12.54-12.55z" fill="#dee6f1" fill-rule="nonzero" transform="matrix(.408649 .912692 -.912692 .408649 170.4 -8.18)"/><path d="m53.56 175-12.42 5.56c-3.383 1.467-7.031 2.224-10.718 2.224-14.779 0-26.94-12.161-26.94-26.94 0-10.493 6.13-20.07 15.658-24.464l12.42-5.56c-9.528 4.394-15.658 13.971-15.658 24.464 0 14.779 12.161 26.94 26.94 26.94 3.687 0 7.335-.757 10.718-2.224z" fill="#6d95b2" fill-rule="nonzero"/><circle cx="31.94" cy="155.18" fill="#ebeff2" r="19.06" transform="matrix(.912692 -.408649 .408649 .912692 -60.62 26.6)"/><path d="m32 175.73c-.006 0-.012 0-.018 0-11.274 0-20.55-9.277-20.55-20.55s9.276-20.55 20.55-20.55c11.273 0 20.55 9.277 20.55 20.55 0 8.09-4.777 15.458-12.162 18.76-2.632 1.181-5.485 1.791-8.37 1.79zm-.06-38.11c-9.62.019-17.525 7.94-17.525 17.56 0 9.633 7.927 17.56 17.56 17.56s17.56-7.927 17.56-17.56c0-2.475-.523-4.922-1.535-7.18-2.811-6.344-9.151-10.434-16.09-10.38z" fill="#2b0f2b" fill-rule="nonzero"/><circle cx="32.38" cy="154.54" fill="#cfe1f0" r="8.54" transform="matrix(.912692 -.408649 .408649 .912692 -60.32 26.72)"/><path d="m30 183.71c-9.953.007-19.024-5.86-23.1-14.94l-2.61-5.77c-1.464-3.257-2.221-6.787-2.221-10.358 0-9.937 5.863-18.989 14.931-23.052l134.81-60.34c1.811-.818 3.776-1.241 5.763-1.241 5.526 0 10.556 3.271 12.797 8.321l11.76 26.28c3.128 7.044-.089 15.414-7.13 18.55l-134.74 60.35c-3.227 1.447-6.723 2.197-10.26 2.2zm-20.38-16.16c5.003 11.115 18.242 16.171 29.38 11.22l134.79-60.34c5.528-2.481 8.041-9.067 5.57-14.6l-11.73-26.28c-1.759-3.972-5.714-6.545-10.058-6.545-1.577 0-3.137.339-4.572.995l-134.75 60.33c-8.009 3.573-13.191 11.559-13.191 20.329 0 3.133.661 6.231 1.941 9.091z" fill="#5b636d" fill-rule="nonzero"/><g fill="#9ed2ef"><path d="m144.49 111.81c0-6.678-5.422-12.1-12.1-12.1h-12.6c-6.678 0-12.1 5.422-12.1 12.1s5.422 12.1 12.1 12.1h12.6c6.678 0 12.1-5.422 12.1-12.1z" transform="matrix(.408649 .912692 -.912692 .408649 176.62 -48.96)"/><path d="m173.2 98.96c0-6.678-5.422-12.1-12.1-12.1h-12.6c-6.678 0-12.1 5.422-12.1 12.1s5.422 12.1 12.1 12.1h12.6c6.678 0 12.1-5.422 12.1-12.1z" transform="matrix(.408649 .912692 -.912692 .408649 181.87 -82.76)"/><path d="m115.75 124.9c0-6.678-5.422-12.1-12.1-12.1h-12.6c-6.678 0-12.1 5.422-12.1 12.1s5.422 12.1 12.1 12.1h12.6c6.678 0 12.1-5.422 12.1-12.1z" transform="matrix(.408649 .912692 -.912692 .408649 171.56 -14.98)"/><path d="m86.92 137.8c0-6.678-5.422-12.1-12.1-12.1h-12.6c-6.678 0-12.1 5.422-12.1 12.1s5.422 12.1 12.1 12.1h12.6c6.678 0 12.1-5.422 12.1-12.1z" transform="matrix(.408649 .912692 -.912692 .408649 166.3 18.96)"/></g><path d="m31.94 165.23c-.004 0-.008 0-.013 0-5.513 0-10.05-4.537-10.05-10.05s4.537-10.05 10.05-10.05c5.514 0 10.05 4.537 10.05 10.05 0 3.952-2.331 7.553-5.937 9.17-1.289.58-2.687.88-4.1.88zm0-17.09c-3.752.122-6.773 3.242-6.773 6.996 0 3.84 3.16 7 7 7 .914 0 1.818-.178 2.663-.526 2.619-1.077 4.337-3.642 4.337-6.474 0-3.84-3.16-7-7-7-.076 0-.151.002-.227.004z" fill="#2b0f2b" fill-rule="nonzero"/><circle cx="32.36" cy="157.36" fill="#ebeff2" r="19.06" transform="matrix(.219165 -.975688 .975688 .219165 -128.27 154.43)"/><path d="m32.36 177.92c-1.517 0-3.03-.167-4.51-.5-9.341-2.1-16.036-10.466-16.036-20.04 0-11.268 9.273-20.54 20.54-20.54 11.268 0 20.54 9.272 20.54 20.54 0 11.266-9.268 20.537-20.534 20.54zm-3.85-3.43c1.259.282 2.545.424 3.835.424 9.633 0 17.56-7.927 17.56-17.56s-7.927-17.56-17.56-17.56c-9.634 0-17.56 7.927-17.56 17.56 0 3.326.945 6.586 2.725 9.396 2.495 3.935 6.454 6.72 11 7.74z" fill="#2b0f2b" fill-rule="nonzero"/><circle cx="33.09" cy="157.11" fill="#cfe1f0" r="8.54" transform="matrix(.219165 -.975688 .975688 .219165 -127.46 154.95)"/><path d="m32.36 167.41c-5.472-.02-9.964-4.528-9.964-10 0-5.486 4.514-10 10-10s10 4.514 10 10c0 .726-.079 1.451-.236 2.16-1.012 4.576-5.113 7.857-9.8 7.84zm0-17.09c-3.86.011-7.029 3.19-7.029 7.05 0 3.867 3.182 7.05 7.05 7.05s7.05-3.183 7.05-7.05c0-3.289-2.301-6.162-5.511-6.88-.519-.116-1.049-.173-1.58-.17z" fill="#2b0f2b" fill-rule="nonzero"/><circle cx="32.08" cy="154.6" fill="#ebeff2" r="19.06" transform="matrix(.938372 -.345626 .345626 .938372 -51.45 20.61)"/><path d="m32.1 175.15c-.011 0-.023 0-.034 0-11.279 0-20.56-9.281-20.56-20.56s9.281-20.56 20.56-20.56 20.56 9.281 20.56 20.56c0 8.591-5.385 16.317-13.446 19.29-2.267.835-4.664 1.265-7.08 1.27zm0-38.12c-.015 0-.03 0-.045 0-9.65 0-17.59 7.94-17.59 17.59s7.94 17.59 17.59 17.59c9.649 0 17.59-7.94 17.59-17.59 0-6.84-3.989-13.085-10.195-15.96-2.304-1.08-4.815-1.646-7.36-1.66z" fill="#2b0f2b" fill-rule="nonzero"/><circle cx="32.56" cy="153.99" fill="#cfe1f0" r="8.54" transform="matrix(.938372 -.345626 .345626 .938372 -51.21 20.74)"/><path d="m32.08 164.65c-5.524-.001-10.069-4.546-10.069-10.07s4.546-10.07 10.07-10.07 10.07 4.546 10.07 10.07c0 4.21-2.64 7.996-6.591 9.45-1.114.411-2.292.621-3.48.62zm0-17.09c-3.74.138-6.741 3.253-6.741 6.995 0 3.84 3.16 7 7 7 .737 0 1.47-.116 2.171-.345 2.873-.937 4.829-3.633 4.829-6.655 0-3.84-3.16-7-7-7-.086 0-.173.002-.259.005z" fill="#2b0f2b" fill-rule="nonzero"/><path d="m60.86 13.28h28.79c6.885 0 12.55 5.665 12.55 12.55v147.68c0 13.034-10.726 23.76-23.76 23.76h-6.36c-13.034 0-23.76-10.726-23.76-23.76v-147.68c0-6.881 5.659-12.545 12.54-12.55z" fill="#dee6f1" fill-rule="nonzero" transform="matrix(.739514 .673142 -.673142 .739514 90.48 -23.23)"/><path d="m58.54 163.46-9.16 10.06c-5.095 5.48-12.249 8.597-19.731 8.597-14.779 0-26.94-12.161-26.94-26.94 0-6.609 2.433-12.993 6.831-17.927l9.16-10.06c-4.514 4.959-7.017 11.429-7.017 18.135 0 14.78 12.162 26.942 26.942 26.942 7.582 0 14.822-3.2 19.925-8.807z" fill="#6d95b2" fill-rule="nonzero"/><circle cx="30.79" cy="153.93" fill="#ebeff2" r="19.06" transform="matrix(.673142 -.739514 .739514 .673142 -103.76 73.08)"/><path d="m30.77 174.48c-11.269-.014-20.534-9.291-20.534-20.56 0-11.279 9.281-20.56 20.56-20.56s20.56 9.281 20.56 20.56c0 5.118-1.911 10.055-5.356 13.84-3.659 4.045-8.791 6.459-14.24 6.7zm0-38.1c-9.617.015-17.523 7.933-17.523 17.55 0 9.628 7.923 17.55 17.55 17.55 4.936 0 9.649-2.082 12.973-5.73 2.944-3.231 4.577-7.449 4.577-11.82 0-9.628-7.922-17.55-17.55-17.55-.009 0-.018 0-.027 0z" fill="#2b0f2b" fill-rule="nonzero"/><circle cx="30.94" cy="153.17" fill="#cfe1f0" r="8.54" transform="matrix(.673142 -.739514 .739514 .673142 -103.16 72.94)"/><path d="m31.22 183.61c-6.287.011-12.354-2.335-17-6.57l-4.7-4.28c-10.247-9.33-11.006-25.439-1.68-35.69l99.41-109.2c5.191-5.689 14.14-6.108 19.84-.93l21.29 19.38c5.689 5.191 6.108 14.14.93 19.84l-99.4 109.2c-4.784 5.262-11.578 8.261-18.69 8.25zm-15-8.79c9.038 8.206 23.222 7.538 31.45-1.48l99.41-109.2c4.076-4.484 3.747-11.526-.73-15.61l-21.26-19.37c-4.484-4.076-11.526-3.747-15.61.73l-99.41 109.2c-8.217 9.034-7.549 23.228 1.48 31.45z" fill="#5b636d" fill-rule="nonzero"/><path d="m119.12 77.16c0-6.678-5.422-12.1-12.1-12.1h-12.6c-6.678 0-12.1 5.422-12.1 12.1s5.422 12.1 12.1 12.1h12.6c6.678 0 12.1-5.422 12.1-12.1z" fill="#7ebf57" transform="matrix(.739514 .673142 -.673142 .739514 78.18 -47.7)"/><path d="m140.29 53.91c0-6.678-5.422-12.1-12.1-12.1h-12.6c-6.678 0-12.1 5.422-12.1 12.1s5.422 12.1 12.1 12.1h12.6c6.678 0 12.1-5.422 12.1-12.1z" fill="#7ebf57" transform="matrix(.739514 .673142 -.673142 .739514 68.04 -68.01)"/><path d="m98 100.65c0-6.678-5.422-12.1-12.1-12.1h-12.6c-6.678 0-12.1 5.422-12.1 12.1s5.422 12.1 12.1 12.1h12.6c6.678 0 12.1-5.422 12.1-12.1z" fill="#7ebf57" transform="matrix(.739514 .673142 -.673142 .739514 88.49 -27.36)"/><path d="m76.74 124.01c0-6.678-5.422-12.1-12.1-12.1h-12.6c-6.678 0-12.1 5.422-12.1 12.1s5.422 12.1 12.1 12.1h12.6c6.678 0 12.1-5.422 12.1-12.1z" fill="#7ebf57" transform="matrix(.739514 .673142 -.673142 .739514 98.68 -6.96)"/><path d="m30.79 164c-5.477-.013-9.976-4.523-9.976-10 0-5.486 4.515-10 10-10 5.486 0 10 4.514 10 10 0 2.484-.925 4.881-2.594 6.72-1.9 2.094-4.602 3.287-7.43 3.28zm0-17.08c-3.814.037-6.931 3.185-6.931 7 0 3.84 3.159 7 7 7 1.951 0 3.817-.817 5.141-2.25 1.212-1.296 1.887-3.006 1.887-4.781 0-3.84-3.16-7-7-7-.029 0-.058.001-.087.001z" fill="#2b0f2b" fill-rule="nonzero"/><circle cx="32.87" cy="157.97" fill="#ebeff2" r="19.06" transform="matrix(.996637 -.0819385 .0819385 .996637 -12.83 3.22)"/><path d="m32.83 178.53c-11.286-.013-20.567-9.304-20.567-20.59 0-11.295 9.295-20.59 20.59-20.59 11.296 0 20.59 9.295 20.59 20.59 0 10.657-8.273 19.642-18.893 20.52-.573.047-1.147.07-1.72.07zm0-38.11c-.48 0-.963.02-1.45.06-8.988.829-15.947 8.46-15.947 17.486 0 9.633 7.926 17.56 17.56 17.56.422 0 .845-.015 1.267-.046 9.01-.804 15.999-8.445 15.999-17.49 0-9.584-7.846-17.489-17.429-17.56z" fill="#2b0f2b" fill-rule="nonzero"/><circle cx="33.49" cy="157.52" fill="#cfe1f0" r="8.54" transform="matrix(.996637 -.0819385 .0819385 .996637 -12.79 3.27)"/><path d="m32.86 168c-5.352-.221-9.635-4.685-9.635-10.041 0-5.514 4.537-10.05 10.05-10.05s10.05 4.536 10.05 10.05c0 5.356-4.283 9.82-9.635 10.041zm0-17.09h-.58c-3.624.298-6.449 3.363-6.449 7 0 3.853 3.171 7.024 7.024 7.024.192 0 .384-.008.575-.024 3.749-.152 6.751-3.278 6.751-7.03 0-3.86-3.176-7.036-7.036-7.036-.095 0-.19.002-.285.006z" fill="#2b0f2b" fill-rule="nonzero"/><circle cx="31.78" cy="155.42" fill="#ebeff2" r="19.06" transform="matrix(.792503 -.609869 .609869 .792503 -88.19 51.63)"/><path d="m31.8 176c-.005 0-.009 0-.014 0-11.268 0-20.54-9.272-20.54-20.54s9.272-20.54 20.54-20.54 20.54 9.272 20.54 20.54c0 6.372-2.965 12.395-8.016 16.28-3.583 2.765-7.984 4.264-12.51 4.26zm0-38.1c-9.617.016-17.521 7.933-17.521 17.55 0 9.628 7.922 17.55 17.55 17.55 3.87 0 7.634-1.28 10.701-3.64 4.315-3.32 6.849-8.465 6.849-13.91 0-9.628-7.922-17.55-17.55-17.55-.01 0-.019 0-.029 0z" fill="#2b0f2b" fill-rule="nonzero"/><circle cx="32.06" cy="154.7" fill="#cfe1f0" r="8.54" transform="matrix(.792503 -.609869 .609869 .792503 -87.69 51.65)"/><path d="m31.8 165.46c-.441-.001-.882-.031-1.32-.09-4.938-.667-8.661-4.928-8.661-9.91 0-5.486 4.514-10 10-10s10 4.514 10 10-4.514 10-10 10c-.007 0-.013 0-.019 0zm0-17.08c-3.803.053-6.902 3.196-6.902 6.999 0 3.84 3.16 7 7 7 1.502 0 2.966-.483 4.172-1.379 1.778-1.319 2.828-3.407 2.828-5.621 0-3.84-3.16-7-7-7-.042 0-.085 0-.128.001z" fill="#2b0f2b" fill-rule="nonzero"/><path d="m44.56 4h28.79c6.873 0 12.534 5.647 12.55 12.52v147.68.04c0 13.034-10.726 23.76-23.76 23.76-.003 0-.007 0-.01 0h-6.35c-.007 0-.013 0-.02 0-13.034 0-23.76-10.726-23.76-23.76 0-.013 0-.027 0-.04v-147.68c.016-6.877 5.683-12.525 12.56-12.52z" fill="#dee6f1" fill-rule="nonzero" transform="matrix(.906676 .421827 -.421827 .906676 45.98 -15.91)"/><path d="m59.67 156-5.74 12.33c-4.414 9.482-13.966 15.572-24.425 15.572-14.78 0-26.942-12.162-26.942-26.942 0-3.928.859-7.809 2.517-11.37l5.74-12.33c-1.658 3.561-2.517 7.442-2.517 11.37 0 14.78 12.162 26.942 26.942 26.942 10.459 0 20.011-6.09 24.425-15.572z" fill="#6d95b2" fill-rule="nonzero"/><circle cx="30.34" cy="155.16" fill="#ebeff2" r="19.06" transform="matrix(.421827 -.906676 .906676 .421827 -123.14 117.22)"/><path d="m30.33 175.73c-.012 0-.024 0-.036 0-11.306 0-20.61-9.304-20.61-20.61s9.304-20.61 20.61-20.61 20.61 9.304 20.61 20.61c0 8.626-5.415 16.38-13.514 19.35-2.261.832-4.651 1.258-7.06 1.26zm0-38.12c-.005 0-.011 0-.016 0-9.633 0-17.56 7.927-17.56 17.56s7.927 17.56 17.56 17.56c6.805 0 13.023-3.956 15.906-10.12 1.093-2.331 1.66-4.875 1.66-7.45 0-9.628-7.922-17.55-17.55-17.55z" fill="#2b0f2b" fill-rule="nonzero"/><circle cx="30.26" cy="154.4" fill="#cfe1f0" r="8.54" transform="matrix(.421827 -.906676 .906676 .421827 -122.49 116.7)"/><path d="m32.76 185c-3.677-.004-7.309-.813-10.64-2.37l-5.76-2.63c-12.559-5.857-18.085-21.001-12.25-33.57l62.29-133.9c3.256-6.986 11.681-10.059 18.67-6.81l26.1 12.14c4.962 2.279 8.156 7.262 8.156 12.722 0 2.056-.453 4.087-1.326 5.948l-62.32 133.89c-4.161 8.877-13.116 14.574-22.92 14.58zm46.4-177.59c-4.283.01-8.191 2.507-10 6.39l-62.33 133.89c-5.139 11.074-.272 24.416 10.79 29.58l5.76 2.73c2.946 1.373 6.156 2.084 9.406 2.084 8.666 0 16.577-5.058 20.214-12.924l62.26-133.9c.69-1.465 1.047-3.065 1.047-4.685 0-4.289-2.509-8.204-6.407-9.995l-26.1-12.14c-1.453-.677-3.037-1.029-4.64-1.03z" fill="#5b636d" fill-rule="nonzero"/><path d="m92.27 61.53c0-6.678-5.422-12.1-12.1-12.1h-12.6c-6.678 0-12.1 5.422-12.1 12.1s5.422 12.1 12.1 12.1h12.6c6.678 0 12.1-5.422 12.1-12.1z" fill="#f6ac3d" transform="matrix(.906676 .421827 -.421827 .906676 32.85 -25.42)"/><path d="m105.53 33.02c0-6.678-5.422-12.1-12.1-12.1h-12.6c-6.678 0-12.1 5.422-12.1 12.1s5.422 12.1 12.1 12.1h12.6c6.678 0 12.1-5.422 12.1-12.1z" fill="#f6ac3d" transform="matrix(.906676 .421827 -.421827 .906676 22.06 -33.67)"/><path d="m79.12 90.26c0-6.678-5.422-12.1-12.1-12.1h-12.6c-6.678 0-12.1 5.422-12.1 12.1s5.422 12.1 12.1 12.1h12.6c6.678 0 12.1-5.422 12.1-12.1z" fill="#f6ac3d" transform="matrix(.906676 .421827 -.421827 .906676 43.74 -17.19)"/><path d="m65.8 118.89c0-6.678-5.422-12.1-12.1-12.1h-12.6c-6.678 0-12.1 5.422-12.1 12.1s5.422 12.1 12.1 12.1h12.6c6.678 0 12.1-5.422 12.1-12.1z" fill="#f6ac3d" transform="matrix(.906676 .421827 -.421827 .906676 54.58 -8.9)"/><path d="m30.33 165.2c-5.471-.022-9.96-4.529-9.96-10 0-5.486 4.514-10 10-10s10 4.514 10 10c0 1.447-.314 2.876-.92 4.19-1.649 3.539-5.216 5.811-9.12 5.81zm0-17.08c-3.823.025-6.954 3.177-6.954 7 0 3.84 3.159 7 7 7 2.699 0 5.167-1.561 6.324-4 .445-.938.676-1.962.676-3 0-3.84-3.16-7-7-7-.016 0-.031 0-.046 0z" fill="#2b0f2b" fill-rule="nonzero"/><circle cx="31.91" cy="157.4" fill="#ebeff2" r="19.06" transform="matrix(.869064 -.4947 .4947 .869064 -73.69 36.4)"/><path d="m31.95 178c-.011 0-.021 0-.032 0-11.268 0-20.54-9.272-20.54-20.54s9.272-20.54 20.54-20.54 20.54 9.272 20.54 20.54c0 7.373-3.97 14.202-10.378 17.85-3.088 1.756-6.578 2.683-10.13 2.69zm-.06-38.1c-9.614.02-17.513 7.936-17.513 17.55 0 9.628 7.922 17.55 17.55 17.55 9.627 0 17.55-7.922 17.55-17.55 0-3.043-.792-6.035-2.297-8.68-3.094-5.527-8.966-8.95-15.3-8.92z" fill="#2b0f2b" fill-rule="nonzero"/><circle cx="32.29" cy="156.73" fill="#cfe1f0" r="8.54" transform="matrix(.869064 -.4947 .4947 .869064 -73.31 36.49)"/><path d="m31.93 167.45c-.902 0-1.8-.121-2.67-.36-4.324-1.193-7.341-5.155-7.341-9.64 0-5.486 4.514-10 10-10s10 4.514 10 10c0 5.482-4.507 9.994-9.989 10zm0-17.09c-3.768.102-6.811 3.229-6.811 6.997 0 3.841 3.159 7 7 7 1.151 0 2.285-.284 3.301-.827 2.234-1.229 3.626-3.584 3.626-6.133 0-3.181-2.167-5.98-5.246-6.777-.619-.172-1.258-.26-1.9-.26z" fill="#2b0f2b" fill-rule="nonzero"/><circle cx="29.85" cy="155.54" fill="#ebeff2" r="19.06" transform="matrix(.461284 -.887252 .887252 .461284 -121.93 110.28)"/><path d="m29.82 176.1c-11.265-.012-20.528-9.285-20.528-20.55 0-11.273 9.276-20.55 20.55-20.55 11.273 0 20.55 9.277 20.55 20.55 0 3.289-.79 6.53-2.302 9.45-3.535 6.811-10.597 11.101-18.27 11.1zm.05-38.1c-.022 0-.044 0-.066 0-9.65 0-17.59 7.94-17.59 17.59 0 9.649 7.94 17.59 17.59 17.59 9.649 0 17.59-7.941 17.59-17.59 0-6.54-3.648-12.561-9.444-15.59-2.495-1.303-5.266-1.989-8.08-2z" fill="#2b0f2b" fill-rule="nonzero"/><circle cx="29.8" cy="154.78" fill="#cfe1f0" r="8.54" transform="matrix(.461284 -.887252 .887252 .461284 -121.27 109.82)"/><path d="m29.84 165.59c-.014 0-.027 0-.041 0-5.524 0-10.07-4.546-10.07-10.07s4.546-10.07 10.07-10.07 10.07 4.546 10.07 10.07c0 4.378-2.855 8.278-7.029 9.6-.97.308-1.982.467-3 .47zm0-17.09c-3.817.034-6.939 3.183-6.939 7 0 3.84 3.16 7 7 7 2.584 0 4.965-1.43 6.179-3.71.539-1.013.821-2.143.821-3.29 0-3.84-3.159-7-7-7-.02 0-.041 0-.061 0z" fill="#2b0f2b" fill-rule="nonzero"/><path d="m14 .84h28.84c6.881.005 12.54 5.669 12.54 12.55v147.68c0 13.034-10.726 23.76-23.76 23.76h-6.36c-13.034 0-23.76-10.726-23.76-23.76v-147.68c0-6.866 5.634-12.523 12.5-12.55z" fill="#dee6f1" fill-rule="nonzero"/><circle cx="28.44" cy="155.92" fill="#ebeff2" r="19.06"/><path d="m28.44 176.47c-11.279 0-20.56-9.281-20.56-20.56s9.281-20.56 20.56-20.56 20.56 9.281 20.56 20.56v.01c-.016 11.271-9.289 20.539-20.56 20.55zm0-38.11c-9.633 0-17.56 7.927-17.56 17.56s7.927 17.56 17.56 17.56 17.56-7.927 17.56-17.56c-.011-9.629-7.931-17.549-17.56-17.56z" fill="#5b636d" fill-rule="nonzero"/><circle cx="28.04" cy="155.26" fill="#cfe1f0" r="8.54"/><path d="m31.62 187h-6.35c-13.862-.011-25.265-11.418-25.27-25.28v-147.72c.033-7.668 6.332-13.967 14-14h28.84c7.668.033 13.967 6.332 14 14v147.72c-.005 13.843-11.377 25.242-25.22 25.28zm-17.62-184c-6.022.033-10.967 4.978-11 11v147.72c.005 12.217 10.053 22.269 22.27 22.28h6.35c12.205-.016 22.244-10.055 22.26-22.26v-147.74c-.033-6.022-4.978-10.967-11-11z" fill="#5b636d" fill-rule="nonzero"/><path d="m46.74 54.91c0-6.678-5.422-12.1-12.1-12.1h-12.6c-6.678 0-12.1 5.422-12.1 12.1s5.422 12.1 12.1 12.1h12.6c6.678 0 12.1-5.422 12.1-12.1z" fill="#f7575f"/><path d="m46.74 23.46c0-6.678-5.422-12.1-12.1-12.1h-12.6c-6.678 0-12.1 5.422-12.1 12.1s5.422 12.1 12.1 12.1h12.6c6.678 0 12.1-5.422 12.1-12.1z" fill="#f7575f"/><path d="m46.94 86.49c0-6.678-5.422-12.1-12.1-12.1h-12.6c-6.678 0-12.1 5.422-12.1 12.1s5.422 12.1 12.1 12.1h12.6c6.678 0 12.1-5.422 12.1-12.1z" fill="#f7575f"/><path d="m46.94 118.08c0-6.678-5.422-12.1-12.1-12.1h-12.6c-6.678 0-12.1 5.422-12.1 12.1s5.422 12.1 12.1 12.1h12.6c6.678 0 12.1-5.422 12.1-12.1z" fill="#f7575f"/><path d="m28.44 166c-5.486 0-10-4.514-10-10s4.514-10 10-10 10 4.514 10 10c-.027 5.476-4.524 9.973-10 10zm0-17.08c-3.84 0-7 3.16-7 7s3.16 7 7 7 7-3.16 7-7c-.005-3.845-3.155-7.013-7-7.04z" fill="#5b636d" fill-rule="nonzero"/></g></svg>